{"title":"Garm.Wars.The.Last.Druid.2015.BRRip.480p-VYTO [P2PDL]","uid":12927190,"size":373036786,"categoryP":"video","categoryS":"movies","magnet":"?xt=urn:btih:8ad13a278c3e78a87be93408be3955c7b0ec4ebf&amp;dn=Garm.Wars.The.Last.Druid.2015.BRRip.480p-VYTO+%5BP2PDL%5D&amp;tr=udp%3A%2F%2Ftracker.leechers-paradise.org%3A6969&amp;tr=udp%3A%2F%2Fzer0day.ch%3A1337&amp;tr=udp%3A%2F%2Fopen.demonii.com%3A1337&amp;tr=udp%3A%2F%2Ftracker.coppersurfer.tk%3A6969&amp;tr=udp%3A%2F%2Fexodus.desync.com%3A6969","seeders":0,"leechers":1,"uploader":"VYTOP2PDL","files":7,"time":1449482738,"description":"____    ____ ____    ____ .___________.  ______   \r\n     /   /      /   / |           | /  __    \r\n    /   /      /   /  `---|  |----`|  |  |  | \r\n        /     _    _/       |  |     |  |  |  | \r\n       /        |  |         |  |     |  `--'  | \r\n    __/         |__|         |__|      ______/  \r\n                                                  \r\nPresenting Small Encodes with quality for years!\r\n                                                                                                   \r\n                                                                                                   \r\n\r\nGarm.Wars.The.Last.Druid.2015.BRRip.480p.x264.AAC-VYTO\r\n\r\n\r\nGenre: Action, Sci-Fi, Thriller  \nhttp://www.imdb.com/title/tt2504640/\r\n\r\n\r\nGeneral\r\nFormat                         : MPEG-4\r\nFile size                      : 351 MiB\r\nDuration                       : 1h 32mn\r\nOverall bit rate               : 533 Kbps\r\n\r\nVideo\r\nFormat                         : AVC\r\nBit rate                       : 498 Kbps\r\nWidth                          : 720 pixels\r\nHeight                         : 304 pixels\r\nDisplay aspect ratio           : 2.35:1\r\nFrame rate mode                : Constant\r\nFrame rate                     : 24.000 fps\r\nBit depth                      : 8 bits\r\nStream size                    : 328 MiB (93%)\r\nWriting library                : x264\r\n\r\nAudio\r\nFormat                         : AAC\r\nBit rate mode                  : Variable\r\nBit rate                       : 31.8 Kbps\r\nChannel(s)                     : 2 channels \r\nChannel positions              : Front: L R \r\nSampling rate                  : 48.0 KHz\r\nStream size                    : 21.0 MiB (6%)\r\nLanguage                       : English\r\n\r\nSubtitle                       : Yes (English)\r\n\r\nScreen shots:\r\n \nhttp://ititli.com/CJ \nhttp://ititli.com/C5 \nhttp://ititli.com/CB \nhttp://ititli.com/CN \nhttp://ititli.com/CP \nhttp://ititli.com/Cf \nhttp://ititli.com/Cu \nhttp://ititli.com/Cv\r\n\r\n----------------------------------------------------------------------------------------------------\r\n\r\n\r\nEncoder Notes: Looking For Early Access To Anything You Can Provide WEBDL, DVDScr, DVDR, BluRay,\r\nDirect Audio, Music Releases and Seedboxes. If You Got anything to offer please contact us.\r\n\r\nSupport us by donating BC - 1FgwdzPsd1y25Gea8wP1qni35uGCtmkRCD\r\n\r\nSend some love!\r\nind us and join us!","torrent":{"xt":"urn:btih:8ad13a278c3e78a87be93408be3955c7b0ec4ebf","amp;dn":"Garm.Wars.The.Last.Druid.2015.BRRip.480p-VYTO+%5BP2PDL%5D","amp;tr":["udp%3A%2F%2Ftracker.leechers-paradise.org%3A6969","udp%3A%2F%2Fzer0day.ch%3A1337","udp%3A%2F%2Fopen.demonii.com%3A1337","udp%3A%2F%2Ftracker.coppersurfer.tk%3A6969","udp%3A%2F%2Fexodus.desync.com%3A6969"],"infoHash":"8ad13a278c3e78a87be93408be3955c7b0ec4ebf","infoHashBuffer":{"type":"Buffer","data":[138,209,58,39,140,62,120,168,123,233,52,8,190,57,85,199,176,236,78,191]},"announce":[],"urlList":[]}}